<svg width="3600" height="1100" viewBox="0 0 3600 1100" xmlns="http://www.w3.org/2000/svg">
  <rect width="100%" height="100%" fill="#0B0F14"/>
  <style>
  .cn{font-family:'Noto Serif CJK SC','Source Han Serif SC','Songti SC',serif;}
  .en{font-family:'Inter','Avenir Next','Helvetica Neue',Arial,sans-serif;}
  .sanscn{font-family:'Noto Sans CJK SC','Microsoft YaHei',sans-serif;}
  </style>
  <g><ellipse cx="2910.0" cy="615.0" rx="130.5" ry="51.8" fill="none" stroke="#687078" stroke-width="2" opacity="0.260"/><ellipse cx="2917.7" cy="612.3" rx="179.8" ry="69.6" fill="none" stroke="#687078" stroke-width="2" opacity="0.254"/><ellipse cx="2914.1" cy="607.1" rx="229.1" ry="87.3" fill="none" stroke="#687078" stroke-width="2" opacity="0.248"/><ellipse cx="2904.5" cy="605.1" rx="278.4" ry="105.1" fill="none" stroke="#687078" stroke-width="2" opacity="0.242"/><ellipse cx="2902.9" cy="608.5" rx="327.7" ry="122.8" fill="none" stroke="#687078" stroke-width="2" opacity="0.236"/><ellipse cx="2911.7" cy="613.5" rx="377.0" ry="140.6" fill="none" stroke="#687078" stroke-width="2" opacity="0.230"/><ellipse cx="2918.0" cy="614.8" rx="426.3" ry="158.4" fill="none" stroke="#687078" stroke-width="2" opacity="0.224"/><ellipse cx="2912.6" cy="610.8" rx="475.6" ry="176.1" fill="none" stroke="#687078" stroke-width="2" opacity="0.218"/><ellipse cx="2903.4" cy="605.9" rx="524.9" ry="193.9" fill="none" stroke="#687078" stroke-width="2" opacity="0.212"/><ellipse cx="2903.9" cy="605.6" rx="574.2" ry="211.6" fill="none" stroke="#687078" stroke-width="2" opacity="0.206"/><ellipse cx="2913.4" cy="610.0" rx="623.5" ry="229.4" fill="none" stroke="#687078" stroke-width="2" opacity="0.200"/><ellipse cx="2917.9" cy="614.5" rx="672.8" ry="247.2" fill="none" stroke="#687078" stroke-width="2" opacity="0.194"/><ellipse cx="2910.9" cy="614.0" rx="722.1" ry="264.9" fill="none" stroke="#687078" stroke-width="2" opacity="0.188"/><ellipse cx="2902.6" cy="609.2" rx="771.4" ry="282.7" fill="none" stroke="#687078" stroke-width="2" opacity="0.182"/><ellipse cx="2905.2" cy="605.2" rx="820.7" ry="300.4" fill="none" stroke="#687078" stroke-width="2" opacity="0.176"/><ellipse cx="2914.8" cy="606.5" rx="870.0" ry="318.2" fill="none" stroke="#687078" stroke-width="2" opacity="0.170"/><ellipse cx="2917.4" cy="611.6" rx="919.3" ry="336.0" fill="none" stroke="#687078" stroke-width="2" opacity="0.164"/><ellipse cx="2909.1" cy="614.9" rx="968.6" ry="353.7" fill="none" stroke="#687078" stroke-width="2" opacity="0.158"/></g>
<g transform="translate(260 170)">
      <rect x="48.00" y="53.20" width="204.00" height="653.60" rx="57.12" fill="#EDECE7"/>
      <g transform="translate(95.25 118.56) scale(0.352108) translate(-1316 -284)"><path d="M1473.8 286.5C1487.7 286.5 1499.32 291.169 1508.68 300.507 1519.74 314.678 1523.72 335.877 1520.6 364.105 1520.6 375.021 1519.94 387.236 1518.6 400.749 1514.4 424.818 1509.42 443.765 1503.66 457.59 1500.68 462.523 1497.25 471.285 1493.36 483.878 1489.17 495.435 1485.14 506.499 1481.29 517.07 1477.83 525.142 1470.77 549.547 1460.1 590.286 1457.73 604.375 1452.8 619.968 1445.3 637.066 1443 642.82 1440.71 649.108 1438.44 655.931 1438.44 663.855 1435.61 672.058 1429.94 680.541 1425.27 689.073 1422.93 707.996 1422.93 737.309 1422.93 760.735 1423.61 774.118 1424.96 777.455 1427.33 784.59 1429.03 790.771 1430.07 795.999 1437.3 813.13 1451.63 837.51 1473.06 869.141 1485.49 888.457 1497.11 907.906 1507.91 927.486 1514.15 942.052 1521.07 954.562 1528.68 965.018 1542.28 987.656 1552.68 1009.23 1559.89 1029.75 1563.57 1037.08 1567.2 1044.33 1570.79 1051.5 1574.31 1055.02 1577.82 1062 1581.31 1072.44 1586.25 1083.3 1591 1094.46 1595.58 1105.9 1614.86 1145.49 1624.5 1177.45 1624.5 1201.78 1624.5 1217.38 1619.16 1236.45 1608.47 1258.99 1602.17 1268.85 1598.53 1277.7 1597.56 1285.52 1596.91 1289.35 1596.59 1306.85 1596.59 1338.02L1596.59 1392.92 1588.79 1418.27C1584.01 1436.39 1581.36 1446.22 1580.84 1447.79 1575.47 1477.77 1569.89 1499.14 1564.09 1511.9 1562.36 1517.11 1560.68 1522.17 1559.03 1527.07 1554.68 1553.13 1544.32 1581.39 1527.94 1611.85 1519.59 1627.52 1514.96 1639.85 1514.06 1648.86 1511.49 1660.49 1506.35 1672.9 1498.62 1686.1 1490.82 1696.84 1485.34 1708.54 1482.18 1721.22 1480.76 1728.25 1477.49 1733.46 1472.37 1736.85 1469.44 1740.76 1465.37 1744.65 1460.17 1748.51 1438.77 1764.07 1420.86 1769.53 1406.43 1764.91 1395.7 1761.84 1386.53 1753.66 1378.92 1740.38 1378.92 1736.02 1379.46 1727.24 1380.53 1714.04 1382.83 1702.56 1384.91 1693.57 1386.78 1687.06 1388.93 1666.66 1393.51 1648.9 1400.51 1633.77 1402.28 1629.32 1403.93 1625.18 1405.45 1621.37 1406.96 1615.38 1410.01 1600.05 1414.58 1575.35 1414.58 1569.45 1416.57 1561.19 1420.53 1550.57 1423.6 1543.48 1427.19 1534.47 1431.3 1523.52 1435.45 1513.59 1439.18 1504.16 1442.49 1495.23 1445.58 1484.6 1451.8 1464.98 1461.14 1436.39 1468.35 1416.55 1471.95 1405.59 1471.95 1403.52 1474.47 1389.63 1478.59 1378.12 1484.3 1369 1486.52 1363.84 1488.62 1357.33 1490.6 1349.47 1494.7 1337.76 1494.87 1326.22 1491.12 1314.84 1487.64 1296.32 1485.91 1277.21 1485.91 1257.51 1485.91 1242.37 1487.3 1231.27 1490.1 1224.22 1502.81 1200 1505.25 1184.57 1497.41 1177.93 1493.22 1168.18 1490.1 1158.71 1488.05 1149.5 1485.32 1140.44 1479.57 1129.34 1470.79 1116.21 1448.09 1080.91 1435.55 1055.04 1433.18 1038.58 1432.39 1033.04 1430.14 1026.94 1426.44 1020.28 1422.72 1014.1 1411.34 985.659 1392.31 934.958 1385.56 913.75 1379.79 899.826 1375.02 893.184 1370.2 883.517 1365.7 874.073 1361.54 864.85 1353.86 848.476 1346.17 833.079 1338.45 818.661 1327.3 794.15 1321.19 771.257 1320.12 749.984 1315.91 716.66 1319.91 691.063 1332.15 673.193L1341.7 656.473 1341.7 639.754C1343.83 622.837 1345.58 612.217 1346.96 607.893 1356.19 575.013 1365.41 542.215 1374.62 509.5 1381.7 488.292 1385.77 471.943 1386.82 460.451 1390 433.983 1394.61 414.715 1400.65 402.648 1405.43 390.269 1410.4 377.363 1415.57 363.932 1420.08 354.594 1425.14 340.834 1430.73 322.651 1443.51 298.55 1457.87 286.5 1473.8 286.5Z" fill="#0B0F14" stroke="none" fill-rule="evenodd"/></g>
    </g>
<line x1="760" y1="270" x2="760" y2="830" stroke="#C9C5BA" stroke-width="3" opacity="0.55"/>
<text x="900" y="500" class="cn" font-size="170" fill="#EDECE7" letter-spacing="24">申椿</text>
<text x="1455" y="500" class="en" font-size="150" fill="#EDECE7" letter-spacing="4">Sencium</text>
<text x="908" y="690" class="cn" font-size="54" fill="#C9C5BA" letter-spacing="4">椿，一种生长迅速而无用的树木</text>
</svg>