<svg width="3489" height="1345" xmlns="http://www.w3.org/2000/svg" xmlns:xlink="http://www.w3.org/1999/xlink" overflow="hidden"><defs><clipPath id="clip0"><rect x="358" y="245" width="3489" height="1345"/></clipPath></defs><g clip-path="url(#clip0)" transform="translate(-358 -245)"><path d="M358 245 3725 245 3725 1590 358 1590Z" fill="#0B0F14" fill-rule="evenodd"/><path d="M2683 1107.5C2683 1154.72 2579.8 1193 2452.5 1193 2325.2 1193 2222 1154.72 2222 1107.5 2222 1060.28 2325.2 1022 2452.5 1022 2579.8 1022 2683 1060.28 2683 1107.5Z" stroke="#7F6000" stroke-width="1.64062" stroke-miterlimit="8" stroke-opacity="0.568627" fill="none" fill-rule="evenodd"/><path d="M2784 1103C2784 1166.51 2641.85 1218 2466.5 1218 2291.15 1218 2149 1166.51 2149 1103 2149 1039.49 2291.15 988 2466.5 988 2641.85 988 2784 1039.49 2784 1103Z" stroke="#7F6000" stroke-width="1.64062" stroke-miterlimit="8" stroke-opacity="0.568627" fill="none" fill-rule="evenodd"/><path d="M2864 1094.5C2864 1173.75 2682.9 1238 2459.5 1238 2236.1 1238 2055 1173.75 2055 1094.5 2055 1015.25 2236.1 951 2459.5 951 2682.9 951 2864 1015.25 2864 1094.5Z" stroke="#7F6000" stroke-width="1.64062" stroke-miterlimit="8" stroke-opacity="0.568627" fill="none" fill-rule="evenodd"/><path d="M2934 1091C2934 1186.55 2713.95 1264 2442.5 1264 2171.05 1264 1951 1186.55 1951 1091 1951 995.455 2171.05 918 2442.5 918 2713.95 918 2934 995.455 2934 1091Z" stroke="#7F6000" stroke-width="1.64062" stroke-miterlimit="8" stroke-opacity="0.568627" fill="none" fill-rule="evenodd"/><path d="M3018 1096.5C3018 1208.34 2759.22 1299 2440 1299 2120.78 1299 1862 1208.34 1862 1096.5 1862 984.663 2120.78 894 2440 894 2759.22 894 3018 984.663 3018 1096.5Z" stroke="#7F6000" stroke-width="1.64062" stroke-miterlimit="8" stroke-opacity="0.568627" fill="none" fill-rule="evenodd"/><path d="M3121 1105C3121 1233.13 2823.05 1337 2455.5 1337 2087.95 1337 1790 1233.13 1790 1105 1790 976.87 2087.95 873 2455.5 873 2823.05 873 3121 976.87 3121 1105Z" stroke="#7F6000" stroke-width="1.64062" stroke-miterlimit="8" stroke-opacity="0.568627" fill="none" fill-rule="evenodd"/><path d="M3219 1107C3219 1251.15 2882.09 1368 2466.5 1368 2050.91 1368 1714 1251.15 1714 1107 1714 962.854 2050.91 846 2466.5 846 2882.09 846 3219 962.854 3219 1107Z" stroke="#7F6000" stroke-width="1.64062" stroke-miterlimit="8" stroke-opacity="0.568627" fill="none" fill-rule="evenodd"/><path d="M3297 1100.5C3297 1260.94 2921.14 1391 2457.5 1391 1993.86 1391 1618 1260.94 1618 1100.5 1618 940.061 1993.86 810 2457.5 810 2921.14 810 3297 940.061 3297 1100.5Z" stroke="#7F6000" stroke-width="1.64062" stroke-miterlimit="8" stroke-opacity="0.568627" fill="none" fill-rule="evenodd"/><path d="M3367 1092.5C3367 1268.96 2952.19 1412 2440.5 1412 1928.81 1412 1514 1268.96 1514 1092.5 1514 916.045 1928.81 773 2440.5 773 2952.19 773 3367 916.045 3367 1092.5Z" stroke="#7F6000" stroke-width="1.64062" stroke-miterlimit="8" stroke-opacity="0.568627" fill="none" fill-rule="evenodd"/><path d="M3455 1092C3455 1284.75 3001.24 1441 2441.5 1441 1881.76 1441 1428 1284.75 1428 1092 1428 899.253 1881.76 743 2441.5 743 3001.24 743 3455 899.253 3455 1092Z" stroke="#7F6000" stroke-width="1.64062" stroke-miterlimit="8" stroke-opacity="0.568627" fill="none" fill-rule="evenodd"/><path d="M749.378 330.09C806.131 330.09 852.138 330.09 852.138 330.09L852.138 1505.09C852.138 1505.09 806.131 1505.09 749.378 1505.09L587.898 1505.09C531.145 1505.09 485.138 1505.09 485.138 1505.09L485.138 330.09C485.138 330.09 531.145 330.09 587.898 330.09Z" fill="#EDECE7" fill-rule="evenodd"/><path d="M668.894 448.747C677.706 448.747 685.073 451.703 691.007 457.615 698.019 466.587 700.542 480.008 698.564 497.879 698.564 504.79 698.146 512.524 697.296 521.079 694.634 536.317 691.477 548.313 687.825 557.066 685.935 560.189 683.76 565.736 681.294 573.709 678.638 581.026 676.083 588.031 673.642 594.723 671.448 599.833 666.973 615.285 660.208 641.077 658.705 649.997 655.58 659.869 650.825 670.693 649.367 674.337 647.915 678.317 646.475 682.637 646.475 687.654 644.682 692.847 641.087 698.218 638.126 703.619 636.642 715.6 636.642 734.158 636.642 748.99 637.074 757.463 637.93 759.575 639.432 764.092 640.51 768.005 641.169 771.315 645.753 782.161 654.838 797.596 668.424 817.622 676.305 829.852 683.672 842.165 690.519 854.561 694.475 863.783 698.862 871.703 703.687 878.323 712.309 892.655 718.903 906.314 723.474 919.306 725.807 923.946 728.108 928.536 730.384 933.076 732.616 935.304 734.841 939.723 737.054 946.333 740.186 953.208 743.197 960.274 746.101 967.517 758.324 992.581 764.436 1012.82 764.436 1028.22 764.436 1038.1 761.051 1050.17 754.273 1064.44 750.279 1070.68 747.971 1076.28 747.357 1081.24 746.944 1083.66 746.741 1094.74 746.741 1114.47L746.741 1149.23 741.796 1165.28C738.766 1176.75 737.085 1182.98 736.756 1183.97 733.351 1202.95 729.814 1216.48 726.137 1224.56 725.04 1227.86 723.974 1231.06 722.929 1234.16 720.171 1250.66 713.602 1268.55 703.218 1287.84 697.924 1297.76 694.989 1305.57 694.418 1311.27 692.789 1318.63 689.53 1326.49 684.629 1334.85 679.684 1341.65 676.21 1349.05 674.207 1357.08 673.306 1361.53 671.233 1364.83 667.987 1366.98 666.129 1369.45 663.549 1371.92 660.252 1374.36 646.685 1384.21 635.33 1387.67 626.181 1384.74 619.379 1382.8 613.565 1377.62 608.741 1369.21 608.741 1366.45 609.083 1360.89 609.761 1352.54 611.219 1345.27 612.538 1339.58 613.723 1335.45 615.087 1322.54 617.991 1311.29 622.428 1301.72 623.551 1298.9 624.596 1296.28 625.56 1293.87 626.517 1290.07 628.451 1280.37 631.349 1264.73 631.349 1260.99 632.61 1255.77 635.121 1249.04 637.067 1244.55 639.343 1238.85 641.949 1231.92 644.58 1225.63 646.945 1219.66 649.043 1214.01 651.002 1207.28 654.946 1194.85 660.867 1176.75 665.438 1164.19 667.721 1157.25 667.721 1155.94 669.318 1147.15 671.93 1139.86 675.551 1134.09 676.958 1130.82 678.289 1126.7 679.544 1121.72 682.144 1114.31 682.252 1107 679.874 1099.8 677.668 1088.07 676.571 1075.97 676.571 1063.5 676.571 1053.92 677.452 1046.89 679.228 1042.43 687.285 1027.09 688.833 1017.32 683.862 1013.12 681.206 1006.95 679.228 1000.95 677.928 995.12 676.197 989.384 672.551 982.356 666.985 974.044 652.593 951.695 644.643 935.317 643.141 924.896 642.64 921.388 641.214 917.526 638.868 913.31 636.509 909.397 629.294 891.391 617.23 859.292 612.95 845.865 609.292 837.049 606.268 832.844 603.212 826.724 600.359 820.745 597.722 814.906 592.852 804.539 587.977 794.791 583.083 785.663 576.014 770.145 572.14 755.651 571.462 742.183 568.792 721.085 571.328 704.879 579.089 693.566L585.143 682.98 585.143 672.396C586.494 661.685 587.603 654.961 588.478 652.224 594.33 631.407 600.175 610.642 606.014 589.93 610.503 576.503 613.083 566.152 613.749 558.877 615.765 542.12 618.688 529.921 622.517 522.282 625.548 514.444 628.699 506.273 631.976 497.77 634.836 491.858 638.043 483.146 641.587 471.635 649.69 456.376 658.794 448.747 668.894 448.747Z" fill="#0B0F14" fill-rule="evenodd"/><path d="M0 0 0 759" stroke="#C9C5BA" stroke-width="2.46056" stroke-miterlimit="8" stroke-opacity="0.54902" fill="none" fill-rule="evenodd" transform="matrix(-1 0 0 1 988 571)"/><text fill="#EDECE7" font-family="STZhongsong,STZhongsong_MSFontService,sans-serif" font-weight="400" font-size="367" transform="matrix(1 0 0 1 1102.6 837)">申椿<tspan font-family="Noto Sans SC,Noto Sans SC_MSFontService,sans-serif" font-size="367" x="995.11" y="22">Sencium</tspan><tspan fill="#C9C5BA" font-family="FZYaoTi,FZYaoTi_MSFontService,sans-serif" font-stretch="semi-condensed" font-size="165" x="37.5681" y="465">椿，一种生长迅速而无用的树木</tspan></text></g></svg>